<?xml version="1.0" encoding="UTF-8"?>
<svg version="1.1" xmlns="http://www.w3.org/2000/svg" width="1596" height="968">
<path d="M0 0 C120.45 0 240.9 0 365 0 C366.125 11.25 366.125 11.25 366.12304783 16.63408852 C366.12503888 17.85925387 366.12702993 19.08441922 366.12908131 20.3467108 C366.12616847 21.6638505 366.12325563 22.98099019 366.12025452 24.33804321 C366.12069126 25.77385489 366.12156807 27.20966648 366.12284368 28.64547765 C366.12506832 32.56783901 366.12109532 36.49017281 366.11606562 40.41253066 C366.111732 44.65097661 366.11320961 48.88942111 366.1139679 53.12786865 C366.11449129 60.46361278 366.11136379 67.79934799 366.10573006 75.13508987 C366.09759003 85.7412355 366.09499727 96.34737682 366.09374207 106.95352523 C366.09155548 124.16286692 366.08490606 141.37220386 366.07543945 158.58154297 C366.06625516 175.29508439 366.0591793 192.00862453 366.05493164 208.72216797 C366.05453756 210.26847782 366.05453756 210.26847782 366.05413551 211.84602626 C366.05283044 217.01780856 366.05156674 222.18959087 366.05032361 227.36137319 C366.03996324 270.24091875 366.02235562 313.12045913 366 356 C362.32593479 357.91764996 358.65174739 359.83506569 354.97753906 361.75244141 C353.94456696 362.29159683 352.91159485 362.83075226 351.84732056 363.38624573 C344.15682594 367.39930093 336.45780533 371.39528363 328.75 375.375 C326.27851765 376.65209579 323.80722415 377.92955682 321.3359375 379.20703125 C320.72299835 379.52383347 320.1100592 379.84063568 319.47854614 380.16703796 C313.10792156 383.46017138 306.74112899 386.76068521 300.375 390.0625 C298.71645996 390.92270752 298.71645996 390.92270752 297.02441406 391.80029297 C294.79718063 392.95552806 292.56996704 394.11080141 290.34277344 395.26611328 C284.72884391 398.17804196 279.11439439 401.08896774 273.5 404 C271.24999754 405.16666192 268.99999754 406.33332858 266.75 407.5 C253.25 414.5 239.75 421.5 226.25 428.5 C225.13455811 429.0787085 224.01911621 429.65741699 222.86987305 430.25366211 C220.63805694 431.41023536 218.40515932 432.5647242 216.17114258 433.71704102 C210.89253713 436.44298898 205.62755346 439.18896247 200.39926147 442.01010132 C197.9287379 443.34152623 195.45196164 444.66107066 192.97460938 445.97973633 C191.22814667 446.91571627 189.49088662 447.8688037 187.75390625 448.82226562 C186.69429687 449.38494141 185.6346875 449.94761719 184.54296875 450.52734375 C183.61508545 451.02999756 182.68720215 451.53265137 181.73120117 452.05053711 C176.5282014 453.85928531 172.78894052 451.99761813 168.03051758 449.75024414 C166.06434403 448.77021945 164.10259884 447.78127779 162.14453125 446.78515625 C161.08828049 446.25538681 160.03202972 445.72561737 158.94377136 445.17979431 C155.56287139 443.48148199 152.18777181 441.77196554 148.8125 440.0625 C146.59214529 438.94657211 144.37144529 437.83133097 142.15039062 436.71679688 C131.66138326 431.44270495 121.21844003 426.09349781 110.84590149 420.5940094 C101.97649269 415.90478666 92.98757081 411.45722225 84 407 C74.13203661 402.10616306 64.28650543 397.18778441 54.5546875 392.02734375 C44.49888124 386.69532488 34.32069521 381.62054288 24.125 376.5625 C20.60559502 374.81615509 17.08757197 373.06706755 13.5703125 371.31640625 C12.78077179 370.92578506 11.99123108 370.53516388 11.17776489 370.13270569 C10.43863861 369.76479416 9.69951233 369.39688263 8.93798828 369.01782227 C8.29580353 368.6993483 7.65361877 368.38087433 6.99197388 368.05274963 C6.3346225 367.70534225 5.67727112 367.35793488 5 367 C3.71990727 366.41222205 3.71990727 366.41222205 2.41395408 365.8125698 C0 364 0 364 -0.62099248 361.29342586 C-0.61909388 360.18881942 -0.61719528 359.08421298 -0.61523914 357.94613361 C-0.6251935 356.67180407 -0.63514786 355.39747452 -0.64540386 354.08452892 C-0.63114248 352.6631443 -0.61641552 351.24176429 -0.60127258 349.82038879 C-0.60345879 348.32000777 -0.6078417 346.8196286 -0.61424255 345.31925964 C-0.62549432 341.17734247 -0.60534177 337.0360676 -0.58036365 332.89423205 C-0.5585924 328.36643167 -0.56583257 323.83866278 -0.56945324 319.31082439 C-0.572116 310.5140491 -0.54898642 301.71752815 -0.5169466 292.92081828 C-0.48100678 282.74971773 -0.4769762 272.57877088 -0.47302246 262.40759277 C-0.44674946 235.54252141 -0.37694417 208.67750692 -0.3125 181.8125 C-0.209375 121.814375 -0.10625 61.81625 0 0 Z " fill="#FDFCFD" transform="translate(634,106)"/>
<path d="M0 0 C-0.13575439 0.80816162 -0.27150879 1.61632324 -0.41137695 2.44897461 C-1.05095754 6.27752618 -1.68429308 10.10706844 -2.3125 13.9375 C-2.42671295 14.63384552 -2.5409259 15.33019104 -2.65859985 16.04763794 C-4.39012012 26.6632067 -5.87287113 37.27998862 -7.01098633 47.97827148 C-7.16603638 49.39474976 -7.16603638 49.39474976 -7.32421875 50.83984375 C-7.40760498 51.64800537 -7.49099121 52.45616699 -7.5769043 53.28881836 C-8 56 -8 56 -8.96826172 59.74243164 C-10.12068778 64.221714 -10.68195176 68.68936372 -11.18359375 73.28125 C-11.28367737 74.15946915 -11.38376099 75.03768829 -11.48687744 75.94252014 C-11.8098282 78.79436954 -12.12427336 81.64706731 -12.4375 84.5 C-12.65923996 86.49341055 -12.88100124 88.48681873 -13.1027832 90.48022461 C-15.48185314 111.99263161 -17.7146168 133.49015053 -18.8767395 155.10760498 C-18.99914907 157.29727849 -19.1350899 159.48570622 -19.27514648 161.67431641 C-19.70317244 168.51423516 -20.03293209 175.31075971 -20.01528931 182.16589355 C-20.0186768 206.42899345 -20.0186768 206.42899345 -25.21191406 212.64941406 C-31.17390113 217.37030805 -37.80048888 219.80803194 -45 222 C-45.87108398 222.35626465 -46.74216797 222.7125293 -47.63964844 223.07958984 C-50.65322336 224.25472197 -52.78428189 224.33479842 -56 224 C-58.6640625 222.77734375 -58.6640625 222.77734375 -61.625 220.9375 C-68.17218912 216.99194019 -74.86224076 213.36100334 -81.61499023 209.77954102 C-91.9697899 204.28518583 -102.23399677 198.65511124 -112.41577148 192.8449707 C-119.55244933 188.78537692 -126.76009644 184.87209702 -134 181 C-145.12006553 175.04825353 -156.11952183 168.90732335 -167.07666016 162.66162109 C-170.21698495 160.87666615 -173.36358597 159.10317663 -176.51171875 157.33203125 C-178.10850464 156.43303101 -178.10850464 156.43303101 -179.73754883 155.51586914 C-181.79280709 154.35909667 -183.84861395 153.20329823 -185.9050293 152.04858398 C-186.8206665 151.53239502 -187.73630371 151.01620605 -188.6796875 150.484375 C-189.49163574 150.02772461 -190.30358398 149.57107422 -191.14013672 149.10058594 C-193 148 -193 148 -194 147 C-194.11250712 145.66525448 -194.15730368 144.32470995 -194.17408752 142.9853363 C-194.18702347 142.1204509 -194.19995941 141.25556549 -194.21328735 140.36447144 C-194.22226044 139.40815826 -194.23123352 138.45184509 -194.24047852 137.46655273 C-194.25347488 136.46488571 -194.26647125 135.46321869 -194.27986145 134.43119812 C-194.40679982 123.93140966 -194.46337003 113.43080361 -194.51489258 102.93041992 C-194.541625 97.94722083 -194.59033308 92.96497981 -194.65844727 87.98217773 C-194.74042666 81.97032682 -194.78308292 75.95938768 -194.79795647 69.94700813 C-194.81020264 67.65643928 -194.83623146 65.36590043 -194.87640572 63.07565117 C-194.9299354 59.86242557 -194.93286583 56.65278684 -194.92407227 53.43920898 C-194.95126343 52.49706543 -194.97845459 51.55492187 -195.00646973 50.58422852 C-194.93005926 45.15166406 -194.00931207 42.42525391 -190.16148376 38.49256897 C-186.66874492 35.36288339 -183.10376291 32.88710414 -178.875 30.875 C-178.20251221 30.54935059 -177.53002441 30.22370117 -176.8371582 29.88818359 C-161.71618926 22.93440992 -145.49005077 20.10441449 -129 19 C-129.16604736 19.56170898 -129.33209473 20.12341797 -129.50317383 20.70214844 C-133.0328571 32.77383665 -135.83622228 44.62820067 -137.45703125 57.10546875 C-138 61 -138 61 -139 64 C-144.57007146 93.75133834 -144.57007146 93.75133834 -137.64453125 122.1875 C-135.78607314 124.23577687 -134.69656643 124.6280598 -132 125 C-131.56051595 123.56310534 -131.12357599 122.12543262 -130.6875 120.6875 C-130.44386719 119.88699219 -130.20023438 119.08648437 -129.94921875 118.26171875 C-129.63597656 117.18535156 -129.32273437 116.10898437 -129 115 C-128.7819873 114.28440918 -128.56397461 113.56881836 -128.33935547 112.83154297 C-125.98536767 104.74987979 -124.59548822 96.55609245 -123.18231201 88.271698 C-120.86666847 74.76443118 -118.36364727 61.3127281 -115.375 47.9375 C-115.11041992 46.72868164 -114.84583984 45.51986328 -114.57324219 44.27441406 C-108.89826867 19.46112936 -108.89826867 19.46112936 -102 14 C-91.99841109 9.98919565 -81.40633921 8.52797618 -70.8125 7 C-69.53863937 6.81156525 -69.53863937 6.81156525 -68.23904419 6.61932373 C-54.17825703 4.5477643 -40.08625975 2.95789135 -25.9375 1.625 C-25.03254791 1.53959961 -24.12759583 1.45419922 -23.19522095 1.36621094 C-20.61891444 1.12632754 -18.04213092 0.89315115 -15.46484375 0.6640625 C-14.33141037 0.56141586 -14.33141037 0.56141586 -13.17507935 0.45669556 C-8.76507561 0.0795 -4.42616619 -0.0618332 0 0 Z " fill="#2970AA" transform="translate(869,287)"/>
<path d="M0 0 C120.45 0 240.9 0 365 0 C366.125 11.25 366.125 11.25 366.12304783 16.63408852 C366.12503888 17.85925387 366.12702993 19.08441922 366.12908131 20.3467108 C366.12616847 21.6638505 366.12325563 22.98099019 366.12025452 24.33804321 C366.12069126 25.77385489 366.12156807 27.20966648 366.12284368 28.64547765 C366.12506832 32.56783901 366.12109532 36.49017281 366.11606562 40.41253066 C366.111732 44.65097661 366.11320961 48.88942111 366.1139679 53.12786865 C366.11449129 60.46361278 366.11136379 67.79934799 366.10573006 75.13508987 C366.09759003 85.7412355 366.09499727 96.34737682 366.09374207 106.95352523 C366.09155548 124.16286692 366.08490606 141.37220386 366.07543945 158.58154297 C366.06625516 175.29508439 366.0591793 192.00862453 366.05493164 208.72216797 C366.05453756 210.26847782 366.05453756 210.26847782 366.05413551 211.84602626 C366.05283044 217.01780856 366.05156674 222.18959087 366.05032361 227.36137319 C366.03996324 270.24091875 366.02235562 313.12045913 366 356 C362.32593479 357.91764996 358.65174739 359.83506569 354.97753906 361.75244141 C353.94456696 362.29159683 352.91159485 362.83075226 351.84732056 363.38624573 C344.15682594 367.39930093 336.45780533 371.39528363 328.75 375.375 C326.27851765 376.65209579 323.80722415 377.92955682 321.3359375 379.20703125 C320.72299835 379.52383347 320.1100592 379.84063568 319.47854614 380.16703796 C313.10792156 383.46017138 306.74112899 386.76068521 300.375 390.0625 C298.71645996 390.92270752 298.71645996 390.92270752 297.02441406 391.80029297 C294.79718063 392.95552806 292.56996704 394.11080141 290.34277344 395.26611328 C284.72884391 398.17804196 279.11439439 401.08896774 273.5 404 C271.24999754 405.16666192 268.99999754 406.33332858 266.75 407.5 C253.25 414.5 239.75 421.5 226.25 428.5 C225.13455811 429.0787085 224.01911621 429.65741699 222.86987305 430.25366211 C220.63805694 431.41023536 218.40515932 432.5647242 216.17114258 433.71704102 C210.89253713 436.44298898 205.62755346 439.18896247 200.39926147 442.01010132 C197.9287379 443.34152623 195.45196164 444.66107066 192.97460938 445.97973633 C191.22814667 446.91571627 189.49088662 447.8688037 187.75390625 448.82226562 C186.69429687 449.38494141 185.6346875 449.94761719 184.54296875 450.52734375 C183.61508545 451.02999756 182.68720215 451.53265137 181.73120117 452.05053711 C176.5282014 453.85928531 172.78894052 451.99761813 168.03051758 449.75024414 C166.06434403 448.77021945 164.10259884 447.78127779 162.14453125 446.78515625 C161.08828049 446.25538681 160.03202972 445.72561737 158.94377136 445.17979431 C155.56287139 443.48148199 152.18777181 441.77196554 148.8125 440.0625 C146.59214529 438.94657211 144.37144529 437.83133097 142.15039062 436.71679688 C131.66138326 431.44270495 121.21844003 426.09349781 110.84590149 420.5940094 C101.97649269 415.90478666 92.98757081 411.45722225 84 407 C74.13203661 402.10616306 64.28650543 397.18778441 54.5546875 392.02734375 C44.49888124 386.69532488 34.32069521 381.62054288 24.125 376.5625 C20.60559502 374.81615509 17.08757197 373.06706755 13.5703125 371.31640625 C12.78077179 370.92578506 11.99123108 370.53516388 11.17776489 370.13270569 C10.43863861 369.76479416 9.69951233 369.39688263 8.93798828 369.01782227 C8.29580353 368.6993483 7.65361877 368.38087433 6.99197388 368.05274963 C6.3346225 367.70534225 5.67727112 367.35793488 5 367 C3.71990727 366.41222205 3.71990727 366.41222205 2.41395408 365.8125698 C0 364 0 364 -0.62099248 361.29342586 C-0.61909388 360.18881942 -0.61719528 359.08421298 -0.61523914 357.94613361 C-0.6251935 356.67180407 -0.63514786 355.39747452 -0.64540386 354.08452892 C-0.63114248 352.6631443 -0.61641552 351.24176429 -0.60127258 349.82038879 C-0.60345879 348.32000777 -0.6078417 346.8196286 -0.61424255 345.31925964 C-0.62549432 341.17734247 -0.60534177 337.0360676 -0.58036365 332.89423205 C-0.5585924 328.36643167 -0.56583257 323.83866278 -0.56945324 319.31082439 C-0.572116 310.5140491 -0.54898642 301.71752815 -0.5169466 292.92081828 C-0.48100678 282.74971773 -0.4769762 272.57877088 -0.47302246 262.40759277 C-0.44674946 235.54252141 -0.37694417 208.67750692 -0.3125 181.8125 C-0.209375 121.814375 -0.10625 61.81625 0 0 Z M16 20 C16 128.9 16 237.8 16 350 C34.42803751 360.06574544 34.42803751 360.06574544 53.10388184 369.59881592 C56.74995407 371.39451023 60.38858613 373.20516558 64.02734375 375.015625 C64.73089996 375.36543427 65.43445618 375.71524353 66.15933228 376.07565308 C72.29912459 379.13492707 78.37373354 382.30794776 84.42651367 385.53564453 C91.15922433 389.1155245 97.98217101 392.50504115 104.81152344 395.89599609 C111.53384247 399.24299839 118.18485058 402.70780427 124.81640625 406.23046875 C131.74412952 409.8967263 138.7511158 413.39388495 145.7734375 416.87475586 C152.86266767 420.39991573 159.87465842 424.05646209 166.8359375 427.828125 C168.87487203 428.92015221 170.93354502 429.96140788 173 431 C173.94875 431.52722656 174.8975 432.05445313 175.875 432.59765625 C181.15028527 433.27684923 184.99687739 430.41611239 189.5 427.875 C191.02850586 427.04500488 191.02850586 427.04500488 192.58789062 426.19824219 C195.73596119 424.48420624 198.86857575 422.74422325 202 421 C204.63067264 419.55350748 207.26419533 418.11234272 209.8984375 416.67236328 C211.65488167 415.71205512 213.41006212 414.74943247 215.1640625 413.78466797 C223.86954341 409.01657798 232.69456867 404.4904827 241.52557373 399.96109009 C250.66300713 395.27192955 259.72282226 390.47173386 268.71484375 385.5078125 C276.24159087 381.37088927 283.86161842 377.42509728 291.5 373.5 C301.11400954 368.55917637 310.66100444 363.51713032 320.12963867 358.30151367 C327.55160329 354.21953764 335.04335754 350.27993931 342.56640625 346.38769531 C343.3965625 345.95682617 344.22671875 345.52595703 345.08203125 345.08203125 C346.18381714 344.51319214 346.18381714 344.51319214 347.30786133 343.93286133 C348.97869638 343.11392312 348.97869638 343.11392312 350 342 C350.10099418 339.62161262 350.1361384 337.27231928 350.12939453 334.89331055 C350.13112136 334.13662614 350.13284819 333.37994173 350.13462734 332.60032749 C350.13903788 330.02910362 350.1359941 327.45794373 350.1328125 324.88671875 C350.13387396 323.03269429 350.13526115 321.17866999 350.13694763 319.324646 C350.13980739 314.19790902 350.13525069 309.07120227 350.12877274 303.94446945 C350.12498937 300.67832144 350.12292703 297.41217636 350.12130737 294.14602661 C350.09895746 255.59017585 349.87192642 217.03607967 349.57804394 178.48151827 C349.56279487 176.47627502 349.54771126 174.47103051 349.53263092 172.46578598 C349.15201953 121.97580366 348.57976424 71.48801965 348 21 C322.57879295 20.86575057 297.15756823 20.7353585 271.73632145 20.60884857 C261.1965552 20.55632732 250.65679109 20.50359136 240.11704254 20.44761276 C165.40961681 20.05137214 90.70988903 20 16 20 Z " fill="#9E9E9E" transform="translate(634,106)"/>
<path d="M0 0 C72.6 0 145.2 0 220 0 C217.7867096 11.61977458 215.58438038 22.92372137 212.92431641 34.3972168 C209.90548461 47.51871204 207.49347759 60.77076235 205 74 C204.65122803 75.83908936 204.65122803 75.83908936 204.29541016 77.71533203 C203.63038008 81.22613865 202.97025818 84.7378243 202.3125 88.25 C202.12236328 89.25828857 201.93222656 90.26657715 201.73632812 91.30541992 C199.96816367 100.84010812 198.48573637 110.41810444 197 120 C195.11740479 120.029729 195.11740479 120.029729 193.19677734 120.06005859 C171.40993636 120.41411436 149.63446518 120.80496325 127.875 122 C127.11096863 122.04179382 126.34693726 122.08358765 125.55975342 122.12664795 C116.03290376 122.65521377 106.51524338 123.29251898 97 124 C97.61757446 119.0259301 99.14809457 114.66185921 101.02734375 110.05078125 C101.48450272 108.90696991 101.48450272 108.90696991 101.95089722 107.74005127 C102.60363615 106.10771852 103.25888134 104.47638611 103.91641235 102.84597778 C105.63788375 98.57473863 107.33840674 94.29518607 109.0390625 90.015625 C109.37841324 89.16251236 109.71776398 88.30939972 110.06739807 87.43043518 C113.07839734 79.84246998 115.98070948 72.2191823 118.8125 64.5625 C119.4146936 62.94178589 119.4146936 62.94178589 120.02905273 61.28833008 C125.07063823 48.94942908 125.07063823 48.94942908 125 36 C121.14568504 31.46502942 116.8934115 28.84789757 111 28 C110.60977661 29.23073242 110.60977661 29.23073242 110.21166992 30.48632812 C108.83666647 34.4736442 107.24995388 38.33337533 105.61328125 42.21875 C104.92220437 43.87159698 104.23129379 45.52451349 103.54052734 47.17749023 C103.17739441 48.04461639 102.81426147 48.91174255 102.44012451 49.80514526 C96.10012743 64.95679459 89.885958 80.1522422 83.875 95.4375 C83.57606842 96.19740234 83.27713684 96.95730469 82.96914673 97.74023438 C82.38554116 99.22516636 81.80283464 100.71045203 81.22106934 102.19610596 C80.65751042 103.63159002 80.09036129 105.06567044 79.51940918 106.49822998 C78.01260222 110.30061945 76.60974687 114.1135849 75.31323242 117.99316406 C75.02598297 118.81631607 74.73873352 119.63946808 74.44277954 120.48756409 C73.89495398 122.06300026 73.3724397 123.64755786 72.88046265 125.24131775 C71.76954263 128.36699869 71.01285218 130.41319963 68.07232666 132.11680603 C64.3157769 133.46109731 60.52167039 134.21471124 56.5390625 134.48046875 C51.48907887 134.915181 46.57068623 135.72806058 41.58374023 136.62353516 C30.21243264 138.66184668 19.21874239 140.07022038 7.66186523 140.02416992 C6.82775871 140.02242516 5.99365219 140.02068039 5.13426971 140.01888275 C3.08950847 140.01435358 1.0447528 140.00741857 -1 140 C-1.02364589 128.39072517 -1.04117113 116.78145647 -1.05181217 105.17216206 C-1.05693096 99.77581721 -1.06381529 94.37948936 -1.07543945 88.9831543 C-1.08667619 83.7310235 -1.09235837 78.47890852 -1.09487724 73.22676659 C-1.0966611 71.26833027 -1.10013154 69.30989435 -1.10573006 67.35146523 C-1.1671201 44.88637707 -0.49935295 22.47088297 0 0 Z " fill="#2B6EA9" transform="translate(676,152)"/>
<path d="M0 0 C12.21 0 24.42 0 37 0 C37 93.06 37 186.12 37 282 C27.16646126 287.53136554 17.35153417 292.99991083 7.37628174 298.25741577 C3.88871423 300.09607617 0.40519259 301.94236639 -3.078125 303.7890625 C-4.10871536 304.33535561 -4.10871536 304.33535561 -5.16012573 304.89268494 C-11.77773129 308.40490119 -18.35709743 311.98518811 -24.92675781 315.58618164 C-32.39073745 319.67579097 -39.87970418 323.71818964 -47.375 327.75 C-49.1082251 328.68235474 -49.1082251 328.68235474 -50.87646484 329.63354492 C-53.58405805 331.08949931 -56.29187976 332.54502622 -59 334 C-60.23749213 330.38305124 -59.79418641 327.61369718 -59.14453125 323.8828125 C-58.93376953 322.63242187 -58.72300781 321.38203125 -58.50585938 320.09375 C-58.27546187 318.77070735 -58.04434758 317.44778931 -57.8125 316.125 C-56.02863826 305.82800115 -54.52103183 295.52758376 -53.17578125 285.1640625 C-51.00963596 268.5711416 -48.4049742 252.05672886 -45.74273682 235.53717041 C-45.24541754 232.44405086 -44.75253547 229.35023066 -44.25967979 226.25639725 C-43.77738304 223.23106696 -43.293032 220.20606849 -42.80800247 217.18117523 C-42.58031271 215.76047979 -42.353081 214.33971083 -42.12635422 212.91886139 C-41.02307145 206.01478727 -39.85619245 199.14492788 -38.44512939 192.29724121 C-37.67587001 188.32721727 -37.14770469 184.32653476 -36.60546875 180.3203125 C-35.00129071 168.8118073 -33.18676308 157.34229133 -31.3125 145.875 C-31.05546799 144.29893982 -31.05546799 144.29893982 -30.79324341 142.69104004 C-27.61780322 123.27395928 -24.1305828 103.92568159 -20.44032288 84.60041809 C-19.33695639 78.81320718 -18.2708004 73.02009801 -17.22265625 67.22265625 C-14.47673205 52.11070895 -11.49211946 37.10275937 -7.8125 22.1875 C-7.56862549 21.18319443 -7.56862549 21.18319443 -7.31982422 20.15859985 C-6.85611968 18.26306604 -6.37562375 16.37166423 -5.89453125 14.48046875 C-5.62487549 13.41723389 -5.35521973 12.35399902 -5.07739258 11.25854492 C-4 8 -4 8 0 0 Z " fill="#474747" transform="translate(920,153)"/>
<path d="M0 0 C23.43 0 46.86 0 71 0 C71 2.97 71 5.94 71 9 C70.10796875 9.20496094 69.2159375 9.40992188 68.296875 9.62109375 C67.12640625 9.89050781 65.9559375 10.15992188 64.75 10.4375 C63.58984375 10.70433594 62.4296875 10.97117187 61.234375 11.24609375 C58.81650239 11.80968 56.40556696 12.38669951 54 13 C51.91099554 19.03612342 51.65970782 24.60725443 51.5859375 30.96484375 C51.56829346 31.88172974 51.55064941 32.79861572 51.5324707 33.74328613 C51.46979907 37.14118489 51.4233402 40.53936714 51.375 43.9375 C51.25125 51.548125 51.1275 59.15875 51 67 C73.77 67 96.54 67 120 67 C119.87625 60.07 119.7525 53.14 119.625 46 C119.59100098 43.82792969 119.55700195 41.65585937 119.52197266 39.41796875 C119.48672959 37.67446432 119.45080429 35.93097349 119.4140625 34.1875 C119.40270264 33.29998047 119.39134277 32.41246094 119.37963867 31.49804688 C119.19949399 22.3637251 119.19949399 22.3637251 115.6875 14.125 C110.66768617 10.77845744 104.83015301 10.06414443 99 9 C99 6.03 99 3.06 99 0 C122.43 0 145.86 0 170 0 C170 2.97 170 5.94 170 9 C169.10796875 9.19335938 168.2159375 9.38671875 167.296875 9.5859375 C165.54117188 9.97652344 165.54117188 9.97652344 163.75 10.375 C162.58984375 10.63023437 161.4296875 10.88546875 160.234375 11.1484375 C155.34461706 12.37474703 155.34461706 12.37474703 151.8125 15.6875 C149.59885304 21.98787981 149.85156144 28.68264632 149.85473633 35.2746582 C149.85137772 36.28374237 149.8480191 37.29282654 149.84455872 38.33248901 C149.83509063 41.65526575 149.83310768 44.97799188 149.83203125 48.30078125 C149.8288158 50.62094646 149.82545151 52.94111146 149.82194519 55.26127625 C149.81596428 60.12072215 149.81410423 64.98015029 149.81469727 69.83959961 C149.81479883 76.0499374 149.80114795 82.2601607 149.78392506 88.47047138 C149.77277737 93.26188169 149.77077891 98.05326456 149.77130699 102.84468651 C149.770131 105.13348981 149.76573074 107.42229391 149.75797462 109.71108437 C149.74811884 112.91985599 149.75107483 116.12838217 149.75708008 119.3371582 C149.75146057 120.27203568 149.74584106 121.20691315 149.74005127 122.17012024 C149.55446848 132.51079795 149.55446848 132.51079795 153.37405109 141.71225452 C157.87032312 145.27328522 164.47522901 145.41844516 170 146 C170 148.97 170 151.94 170 155 C146.57 155 123.14 155 99 155 C99 152.03 99 149.06 99 146 C100.57201172 145.72736328 100.57201172 145.72736328 102.17578125 145.44921875 C103.55480095 145.19592942 104.93370119 144.94198904 106.3125 144.6875 C107.34793945 144.51057617 107.34793945 144.51057617 108.40429688 144.33007812 C111.11824899 143.81875381 113.50099461 143.31411076 115.85546875 141.83203125 C119.86665476 135.41139562 119.34077944 127.7945312 119.4140625 120.50390625 C119.43170654 119.44941284 119.44935059 118.39491943 119.4675293 117.30847168 C119.53029365 113.39329901 119.57668886 109.47787769 119.625 105.5625 C119.74875 96.796875 119.8725 88.03125 120 79 C97.23 79 74.46 79 51 79 C51.103125 88.28125 51.20625 97.5625 51.3125 107.125 C51.33739502 110.04617676 51.36229004 112.96735352 51.38793945 115.97705078 C51.42023305 118.29982101 51.45360728 120.62257658 51.48828125 122.9453125 C51.49452515 124.14534912 51.50076904 125.34538574 51.50720215 126.58178711 C51.57336457 134.73109914 51.57336457 134.73109914 55 142 C56.96870167 143.30284128 56.96870167 143.30284128 59.25 143.8125 C60.43142578 144.14121094 60.43142578 144.14121094 61.63671875 144.4765625 C64.75848973 145.16799607 67.82007952 145.66171059 71 146 C71 148.97 71 151.94 71 155 C47.57 155 24.14 155 0 155 C0 152.03 0 149.06 0 146 C0.79664063 145.89042969 1.59328125 145.78085937 2.4140625 145.66796875 C10.69477421 144.6480991 10.69477421 144.6480991 18 141 C20.31497616 135.02007427 20.29008252 129.29676709 20.2746582 122.94335938 C20.27976913 121.85142776 20.28488007 120.75949615 20.29014587 119.63447571 C20.30400677 116.03751086 20.30308794 112.44073833 20.30078125 108.84375 C20.3046696 106.33703541 20.30900456 103.83032148 20.31376648 101.3236084 C20.32122079 96.07493461 20.32108161 90.82631035 20.31567383 85.57763672 C20.30963118 79.52283048 20.32195818 73.46825645 20.3432439 67.41348982 C20.36302054 61.57168505 20.36602952 55.72997093 20.36250877 49.88813782 C20.36302176 47.40985061 20.36825529 44.93155967 20.37832069 42.45329285 C20.39067143 38.98756045 20.38390144 35.52236458 20.37231445 32.05664062 C20.37995819 31.03617142 20.38760193 30.01570221 20.39547729 28.96430969 C20.35309531 23.22235715 19.87076569 19.0290065 17 14 C11.74556097 10.89022996 5.9716754 10.02131269 0 9 C0 6.03 0 3.06 0 0 Z " fill="#2871A7" transform="translate(279,595)"/>
<path d="M0 0 C2.09700424 3.14550636 2.32924468 5.06295435 2.55859375 8.76953125 C1.51354579 12.94241507 -1.32495691 15.84687568 -4.78491211 18.22875977 C-6.72291415 19.34964221 -8.68403526 20.37618247 -10.6875 21.375 C-11.36361328 21.72949219 -12.03972656 22.08398438 -12.73632812 22.44921875 C-17.68523769 25 -17.68523769 25 -20 25 C-18.4707257 21.55913282 -16.37237071 18.90760069 -14 16 C-33.89514487 23.03925051 -52.02088601 36.72927202 -61.5625 55.8125 C-62.86782263 58.9188374 -63.08024084 59.6723499 -62.25 63.0625 C-61.63125 64.0215625 -61.63125 64.0215625 -61 65 C-56.28827437 64.50475293 -53.56733794 63.36299293 -49.8125 60.5 C-48.85730469 59.77425781 -47.90210938 59.04851563 -46.91796875 58.30078125 C-42.22222059 54.59824355 -37.58730867 50.83609839 -33 47 C-31.85300988 46.05320937 -30.70586841 45.10660206 -29.55859375 44.16015625 C-28.39281002 43.19060793 -27.22743867 42.22056352 -26.0625 41.25 C-25.24676514 40.57843872 -25.24676514 40.57843872 -24.41455078 39.89331055 C-21.18129889 37.17945453 -18.59272031 34.31775395 -16 31 C-13.23749964 29.61874982 -11.05268901 29.80920694 -8 30 C-6 32 -6 32 -5.71264648 34.7980957 C-6.02757298 38.30723842 -6.84035782 40.20084889 -8.59765625 43.23046875 C-9.43006836 44.68356445 -9.43006836 44.68356445 -10.27929688 46.16601562 C-10.86775391 47.16310547 -11.45621094 48.16019531 -12.0625 49.1875 C-12.62388672 50.16525391 -13.18527344 51.14300781 -13.76367188 52.15039062 C-17.658892 58.88578268 -21.77568503 65.46685216 -26 72 C-25.1946582 71.49186768 -24.38931641 70.98373535 -23.55957031 70.46020508 C-21.63867188 69.24820964 -19.71777344 68.03621419 -17.796875 66.82421875 C-15.0454842 65.08345292 -15.0454842 65.08345292 -12.765625 63.26953125 C-11 62 -11 62 -9 62 C-8.95875 60.824375 -8.9175 59.64875 -8.875 58.4375 C-6.9457168 41.5760934 4.77696464 22.39794786 16.984375 11.17578125 C18.8125 9.75 18.8125 9.75 22 8 C24.19921875 8.390625 24.19921875 8.390625 26 9 C27.3667793 24.15606384 19.99164334 36.40612396 11 48 C9.34011687 49.85837439 7.65505183 51.69479002 5.9375 53.5 C2.45510205 57.17027552 2.45510205 57.17027552 0.75 61.8125 C1.02785561 65.35515907 1.86949721 67.18773632 4 70 C9.8979353 69.16181855 13.10418225 66.37991345 17 62 C18.67439512 59.27461224 20.12858398 56.49297617 21.58203125 53.64453125 C25.74507357 45.88039999 32.57977837 39.80674054 41 37 C42.9375 36.83203125 42.9375 36.83203125 45 36.8125 C46.0209375 36.79123047 46.0209375 36.79123047 47.0625 36.76953125 C49 37 49 37 52 39 C52.625 41.5625 52.625 41.5625 53 44 C53.33 44.33 53.66 44.66 54 45 C54.92210933 52.4826905 53.19926126 58.28726431 50 65 C53.69694107 62.96415026 55.67344396 61.74250452 57.3984375 57.8203125 C57.72070312 56.60085938 58.04296875 55.38140625 58.375 54.125 C62.15919894 41.2612422 69.14853967 31.03165504 78 21 C78.7940625 20.0615625 79.588125 19.123125 80.40625 18.15625 C94.46199749 1.96545226 94.46199749 1.96545226 104 1 C105 2 105 2 105.4375 5.8125 C105.06959388 25.25020675 81.35285833 44.96611511 68.39770508 57.46679688 C66.43119138 59.62395076 65.92528477 61.08610609 66 64 C66.85771342 67.24236568 66.85771342 67.24236568 68 70 C70.55687669 69.65447612 72.57501375 69.24912987 74.8125 67.9375 C76.42377102 65.30858412 76.03177866 63.05505734 75.921875 60.0546875 C76.11652779 54.93531902 79.60308243 50.58563521 83 47 C85.29345387 45.34157569 87.40896623 44.22485233 90 43 C90.99 43.33 91.98 43.66 93 44 C93.47266289 51.32627475 92.09866202 56.37384327 89 63 C92.465 62.505 92.465 62.505 96 62 C96.06703125 61.12085938 96.1340625 60.24171875 96.203125 59.3359375 C98.19045979 51.01640853 107.74515782 44.89060614 114.6875 40.5 C122.06856439 36.24236475 128.31574961 33.10162927 137 34 C139.14915785 37.22373677 139.38286803 38.26703674 139 42 C138.01 42.99 138.01 42.99 137 44 C137.4021875 45.4540625 137.4021875 45.4540625 137.8125 46.9375 C138.4021673 49.96192259 138.01680338 50.96980576 136.48046875 53.73046875 C135.18059709 55.63028118 133.84398612 57.50557247 132.46875 59.3515625 C130.71983145 61.9131001 130.71983145 61.9131001 131.28125 64.8359375 C131.5184375 65.55007813 131.755625 66.26421875 132 67 C137.03029439 66.52092434 140.08263422 65.20128816 144 62 C145.29483501 58.8574908 145.29483501 58.8574908 145.875 55.25 C149.51204975 38.89437084 159.80835075 19.13938128 173.4921875 9.1875 C176 8 176 8 178.3125 8.3125 C178.869375 8.539375 179.42625 8.76625 180 9 C181.3667793 24.15606384 173.99164334 36.40612396 165 48 C163.34011687 49.85837439 161.65505183 51.69479002 159.9375 53.5 C156.45510205 57.17027552 156.45510205 57.17027552 154.75 61.8125 C155.02785561 65.35515907 155.86949721 67.18773632 158 70 C162.09319216 69.48034256 164.0963352 68.39893194 167.0625 65.5625 C169.59249184 63.16276516 171.80206062 61.41734952 175 60 C175.4930483 64.07830077 175.24368102 65.65364687 172.83984375 69.0703125 C171.88777241 70.10293357 170.91968997 71.12098358 169.9375 72.125 C169.23850586 72.89263672 169.23850586 72.89263672 168.52539062 73.67578125 C164.3927601 78.05018472 159.89797259 81.54541606 153.8125 82.5 C150.11916245 81.84340666 149.17038863 81.06848047 147 78 C145.81605709 75.04776468 144.86312041 72.06015418 144 69 C143.49210938 69.53109375 142.98421875 70.0621875 142.4609375 70.609375 C136.45370409 76.77410142 131.93914773 81.28486818 123 82 C120.92474097 79.50968916 119.99350443 77.70910026 120.0234375 74.44140625 C120.28530182 71.94661777 120.60089949 69.47634651 121 67 C120.20335937 67.85464844 119.40671875 68.70929688 118.5859375 69.58984375 C117.51630948 70.70638528 116.44595857 71.82223463 115.375 72.9375 C114.59189453 73.78344727 114.59189453 73.78344727 113.79296875 74.64648438 C111.14028989 77.38103604 109.46210172 78.85136752 105.76953125 80.0390625 C103 80 103 80 100.3125 77.4375 C98.16199248 74.47534932 96.50905488 71.33580553 95 68 C94.29875 68.33 93.5975 68.66 92.875 69 C90 70 90 70 87.140625 69.7578125 C82.86141294 70.08780149 81.70937911 71.73852405 78.875 74.875 C74.84052612 79.28652752 72.51759374 81.73025781 66.5 82.375 C63 82 63 82 60.75 80.625 C58.15511941 76.73267911 57.13488324 72.50514257 56 68 C55.41089844 68.48726562 54.82179688 68.97453125 54.21484375 69.4765625 C52 71 52 71 48.5625 71.375 C44.14859231 72.14936977 42.9116885 73.69484008 40 77 C37.0819634 79.55328203 34.92093173 80.81763108 31 81 C25.29185987 79.29757224 22.82477599 77.21497107 20 72 C19.67 71.01 19.34 70.02 19 69 C18.02160156 70.03060547 18.02160156 70.03060547 17.0234375 71.08203125 C16.14945312 71.98308594 15.27546875 72.88414062 14.375 73.8125 C13.51648438 74.70582031 12.65796875 75.59914063 11.7734375 76.51953125 C8.0919065 79.81216813 4.78354838 81.75030323 -0.125 82.4375 C-3 82 -3 82 -5.1875 80.625 C-7.02781132 77.95972154 -7.72774887 75.92407576 -8.61328125 72.8359375 C-8.87536377 71.93149902 -9.13744629 71.02706055 -9.4074707 70.09521484 C-9.60300537 69.40379395 -9.79854004 68.71237305 -10 68 C-10.4626123 68.35715088 -10.92522461 68.71430176 -11.40185547 69.08227539 C-13.55781517 70.74464084 -15.71635823 72.40361896 -17.875 74.0625 C-18.65423828 74.66376709 -19.43347656 75.26503418 -20.23632812 75.88452148 C-24.23437132 78.95242974 -28.24277675 81.85950111 -32.5 84.5625 C-37.38112275 87.89655503 -40.43680141 92.20100694 -43.83203125 96.984375 C-52.41266811 108.91996358 -52.41266811 108.91996358 -58 111 C-61.25 110.625 -61.25 110.625 -64 110 C-65.01422919 105.85856413 -65.22601974 103.56504935 -63.625 99.5625 C-60.25649233 94.38196752 -55.22774236 90.17721355 -50.13745117 86.74365234 C-44.51501684 82.86754464 -41.28431482 78.58116561 -37.8125 72.75 C-37.31814453 71.95464844 -36.82378906 71.15929687 -36.31445312 70.33984375 C-32.86975301 64.72121563 -29.86122485 58.93450864 -27 53 C-28.54107422 54.16015625 -28.54107422 54.16015625 -30.11328125 55.34375 C-36.47451822 60.12775719 -42.83782028 64.90939429 -49.25 69.625 C-50.08015625 70.23601562 -50.9103125 70.84703125 -51.765625 71.4765625 C-55.99700341 74.36159323 -58.79299092 75.53132746 -64 75 C-68.16160823 73.16114985 -70.0181044 71.06288599 -72 67 C-75.00528045 56.8913294 -72.23132467 47.26551281 -67.52734375 38.14453125 C-56.25406636 19.24913251 -34.95676913 6.57900789 -14.125 0.65625 C-9.47959984 -0.31928403 -4.69350208 -0.94895944 0 0 Z M96 11 C85.79649255 19.85304323 75.50051602 33.61706492 70 46 C70.33 46.66 70.66 47.32 71 48 C77.01325203 41.81175915 82.25087908 35.17946589 87.375 28.25 C87.98166504 27.43426514 88.58833008 26.61853027 89.21337891 25.77807617 C92.20411408 21.69224224 95.09944056 17.72963647 97 13 C96.67 12.34 96.34 11.68 96 11 Z M16.6171875 22.1875 C12.203792 26.7790146 9.52900268 31.59737022 7 37.375 C6.68530762 38.08914063 6.37061523 38.80328125 6.04638672 39.5390625 C5.29423266 41.33157518 4.63861887 43.16397076 4 45 C4.33 45.66 4.66 46.32 5 47 C14.19779981 35.06863756 14.19779981 35.06863756 19 21 C17.82265435 20.89141716 17.82265435 20.89141716 16.6171875 22.1875 Z M170.6171875 22.1875 C166.203792 26.7790146 163.52900268 31.59737022 161 37.375 C160.68530762 38.08914063 160.37061523 38.80328125 160.04638672 39.5390625 C159.29423266 41.33157518 158.63861887 43.16397076 158 45 C158.33 45.66 158.66 46.32 159 47 C168.19779981 35.06863756 168.19779981 35.06863756 173 21 C171.82265435 20.89141716 171.82265435 20.89141716 170.6171875 22.1875 Z M128 46 C113.64286174 52.4185021 113.64286174 52.4185021 104 64 C104.30378052 66.68993053 104.30378052 66.68993053 105 69 C114.79389797 67.64678439 122.04764561 57.18356186 127.73046875 49.73046875 C128.14941406 49.15941406 128.56835938 48.58835937 129 48 C128.67 47.34 128.34 46.68 128 46 Z M32 56 C28.50422845 60.19492586 27.21074525 63.52062344 27 69 C28.86497477 71.28143813 28.86497477 71.28143813 31.8125 71.3125 C35.59481379 70.94168492 37.28695455 70.71304545 40 68 C40.23723895 65.53636478 40.11461105 63.18909241 39.9765625 60.71875 C40.01300226 56.49173823 41.42561401 52.87973691 43 49 C38.76029506 49 35.05330222 53.31613648 32 56 Z " fill="#474747" transform="translate(468,782)"/>
<path d="M0 0 C1.3667793 15.15606384 -6.00835666 27.40612396 -15 39 C-16.65988313 40.85837439 -18.34494817 42.69479002 -20.0625 44.5 C-23.54489795 48.17027552 -23.54489795 48.17027552 -25.25 52.8125 C-24.97214439 56.35515907 -24.13050279 58.18773632 -22 61 C-16.05989452 60.13822304 -12.94222241 57.40385812 -9 53 C-6.91300307 49.8282596 -4.99792549 46.57853051 -3.0625 43.3125 C4.69221574 30.85795654 4.69221574 30.85795654 10.5 29.3515625 C13.70869339 29.30014113 16.1212896 29.5606448 19 31 C17.71630721 35.70916178 16.00738868 38.56518659 12.6875 42.125 C11.92824219 42.95257812 11.16898438 43.78015625 10.38671875 44.6328125 C8 47 8 47 5.2578125 49.1015625 C2.69189507 50.88235905 2.69189507 50.88235905 2.1875 54.25 C2.0946875 55.61125 2.0946875 55.61125 2 57 C12.2537397 50.45699328 20.55943492 41.64265532 28.625 32.62890625 C33.11329959 27.660772 33.11329959 27.660772 35 26 C37.75 26.25 37.75 26.25 40 27 C41.16816576 34.50963705 37.14786374 39.03154182 33 45 C28.83263063 51.01445056 28.83263063 51.01445056 27 58 C34.86656997 57.23725009 39.4170401 52.30744096 44.33056641 46.40039062 C47.00104646 43.01440848 49.52571357 39.53213352 52 36 C49.03 36 46.06 36 43 36 C43.39773341 30.56431 45.23025242 26.85125564 49 23 C51.73847097 21.66119197 53.90011225 21.02645021 56.94921875 20.953125 C60.39441082 20.82187959 62.27847967 20.73423435 64.7734375 18.1953125 C65.8168577 16.76506334 66.81984944 15.30414613 67.7734375 13.8125 C69 12 69 12 71 11 C73.3329866 10.95977609 75.66706666 10.95679753 78 11 C77.46884894 15.51478398 75.63379708 18.34666857 73 22 C74.65 22 76.3 22 78 22 C76.64785243 27.40859029 74.31006187 32.36762082 70 36 C66.88611138 36.6603679 64.12942488 36.50070798 61 36 C60.73445312 36.69222656 60.46890625 37.38445313 60.1953125 38.09765625 C58.41838959 42.41221091 56.30668513 46.5627696 54.2421875 50.74609375 C52.96313889 54.09655757 52.75375167 56.45081212 53 60 C58.52692598 60.46469682 61.382305 58.29728248 65.71484375 55.11328125 C68.58722561 52.45694179 69.63655649 50.09727073 70.94921875 46.4765625 C73.77359076 39.81986416 78.39674163 33.18204262 85 30 C88.75 29.75 88.75 29.75 92 30 C92.33 30.33 92.66 30.66 93 31 C92.84698339 38.49781379 89.00810842 42.80868655 84.01171875 48.109375 C83.04685547 49.13804687 83.04685547 49.13804687 82.0625 50.1875 C81.15177734 51.10595703 81.15177734 51.10595703 80.22265625 52.04296875 C78.71358805 54.0073281 78.71358805 54.0073281 79.30859375 56.73828125 C79.53675781 57.48464844 79.76492188 58.23101563 80 59 C85.86194124 59.74833292 89.22241685 58.33336918 94.00390625 54.8984375 C96.69419095 52.33977143 97.70843609 49.79709176 98.99609375 46.3671875 C102.35802917 38.43982227 108.56255787 33.03582131 116 29 C118.64440639 28.1185312 120.28060752 27.83825182 123 27.8125 C123.680625 27.79832031 124.36125 27.78414062 125.0625 27.76953125 C127 28 127 28 130 30 C130.625 32.5625 130.625 32.5625 131 35 C131.33 35.33 131.66 35.66 132 36 C132.92210933 43.4826905 131.19926126 49.28726431 128 56 C133.10165828 53.06068252 135.58962663 50.1210061 138.5 45.0625 C141.43045191 40.00129826 144.19071259 36.42236341 149 33 C152.3125 32.625 152.3125 32.625 155 33 C156 34 156 34 156.30078125 36.28515625 C155.90930913 39.8185734 154.66308622 40.93515069 152.1875 43.4375 C148.9794251 46.83294919 146.76704062 49.6928385 145 54 C145.59167969 53.40832031 146.18335938 52.81664062 146.79296875 52.20703125 C148.4277345 50.5722655 150.0631813 48.93818057 151.69921875 47.3046875 C153.30921758 45.69195522 154.90864854 44.06863524 156.5 42.4375 C168.41808415 30.81736795 168.41808415 30.81736795 174 29 C176.3125 29.3125 176.3125 29.3125 178 31 C179.63020776 37.62623242 179.63020776 37.62623242 178.1706543 40.80786133 C176.93058796 42.55463784 175.61186555 44.15023896 174.1875 45.75 C168.81607659 51.60541118 168.81607659 51.60541118 167 59 C177.44710531 55.16636657 184.50119285 46.57947909 191.70068359 38.46386719 C192.77682452 37.25143934 193.86534911 36.05001595 194.95703125 34.8515625 C197.45111667 32.06071249 199.32363856 29.47772288 201 26.125 C203 23 203 23 206.25 22.0625 C207.1575 22.041875 208.065 22.02125 209 22 C215.38064694 40.23041984 215.38064694 40.23041984 211.5 49.125 C208.95529183 53.71653866 205.09743147 56.81752895 201 60 C205.74753882 59.50647839 208.51031169 58.29346846 212.3125 55.4375 C216.93963783 52 216.93963783 52 218 52 C218.33984375 54.6796875 218.33984375 54.6796875 218 58 C216.19817499 60.05487319 214.69372126 61.49742317 212.5625 63.125 C212.01553467 63.55659424 211.46856934 63.98818848 210.9050293 64.43286133 C205.12481727 68.86832725 199.85280702 72.41503299 192.375 72.125 C187.48716433 71.27606012 184.01621966 68.91658374 181 65 C180.0625 61.625 180.0625 61.625 180 59 C179.27296875 59.65355469 179.27296875 59.65355469 178.53125 60.3203125 C176.37369652 62.23721579 174.1920742 64.12268517 172 66 C171.31808594 66.59425781 170.63617187 67.18851563 169.93359375 67.80078125 C166.51058273 70.60751631 164.60231763 71.9125668 160.125 72.5625 C158.578125 72.2840625 158.578125 72.2840625 157 72 C154.46754625 68.20131937 154.16864869 65.38537819 155 61 C156.74590745 56.85346982 158.80279647 52.92357773 161 49 C155.98332061 52.62618673 152.7328414 57.03221525 149.10546875 61.95507812 C146.40007464 65.52543627 144.10796408 67.96834385 140 70 C136.1334716 66.777893 135.11940982 63.85077588 134 59 C133.484375 59.474375 132.96875 59.94875 132.4375 60.4375 C130 62 130 62 126.5625 62.375 C122.14859231 63.14936977 120.9116885 64.69484008 118 68 C115.0819634 70.55328203 112.92093173 71.81763108 109 72 C104.61505156 70.69220836 102.46489483 69.57217825 99.5625 66 C98 63 98 63 98 60 C97.50371094 60.44730469 97.00742187 60.89460937 96.49609375 61.35546875 C94.35220918 63.26340398 92.18441944 65.1386285 90 67 C89.3915625 67.52078125 88.783125 68.0415625 88.15625 68.578125 C85.11446061 70.98390388 83.28236502 71.95131638 79.375 72.625 C75.00160144 71.81511138 73.68766085 70.50889056 71 67 C69.81441883 64.69549685 68.9080383 62.43736597 68 60 C67.50371094 60.51949219 67.00742187 61.03898438 66.49609375 61.57421875 C55.14317216 73.22873598 55.14317216 73.22873598 46.015625 74.25 C44 74 44 74 42.28125 72.70703125 C40.22867161 69.97234602 40.22757946 67.356797 40 64 C40.30065469 61.99482722 40.62888541 59.99333516 41 58 C40.28714844 58.67546875 39.57429687 59.3509375 38.83984375 60.046875 C25.90515882 72.0937148 25.90515882 72.0937148 19.125 71.875 C18.09375 71.58625 17.0625 71.2975 16 71 C14.51804581 68.03609162 14.94253403 65.27556022 15 62 C15 61.01 15 60.02 15 59 C14.20335937 59.93972656 14.20335937 59.93972656 13.390625 60.8984375 C12.68421875 61.71570313 11.9778125 62.53296875 11.25 63.375 C10.55390625 64.18710937 9.8578125 64.99921875 9.140625 65.8359375 C6.18887319 68.82000776 4.25616694 69.94654609 0.0625 70.125 C-4.46821069 68.4606573 -5.85941143 65.15804594 -8 61 C-8.58007812 61.61488281 -9.16015625 62.22976563 -9.7578125 62.86328125 C-19.01593625 72.44223108 -19.01593625 72.44223108 -26.125 73.4375 C-29 73 -29 73 -31.1875 71.625 C-33.8616361 67.75211324 -34.85908893 63.5290712 -36 59 C-36.58910156 59.48726562 -37.17820312 59.97453125 -37.78515625 60.4765625 C-40 62 -40 62 -43.4375 62.375 C-47.85140769 63.14936977 -49.0883115 64.69484008 -52 68 C-54.9180366 70.55328203 -57.07906827 71.81763108 -61 72 C-66.70814013 70.29757224 -69.17522401 68.21497107 -72 63 C-73.89225366 57.32323903 -73.95038545 51.2838583 -71.375 45.8125 C-66.69833061 37.7138774 -60.03142814 31.01047605 -51 28 C-49.0625 27.83203125 -49.0625 27.83203125 -47 27.8125 C-46.319375 27.79832031 -45.63875 27.78414062 -44.9375 27.76953125 C-43 28 -43 28 -40 30 C-39.375 32.5625 -39.375 32.5625 -39 35 C-38.67 35.33 -38.34 35.66 -38 36 C-37.07789067 43.4826905 -38.80073874 49.28726431 -42 56 C-38.19280757 53.93472849 -36.3054983 52.72705183 -34.6015625 48.671875 C-34.25900323 47.36894428 -33.93435827 46.06121042 -33.625 44.75 C-29.12859556 28.3888167 -20.00434072 10.44519172 -6.3125 -0.0625 C-3.62407665 -1.15240136 -2.69576769 -0.81156796 0 0 Z M-9.3828125 13.1875 C-13.796208 17.7790146 -16.47099732 22.59737022 -19 28.375 C-19.31469238 29.08914063 -19.62938477 29.80328125 -19.95361328 30.5390625 C-20.70576734 32.33157518 -21.36138113 34.16397076 -22 36 C-21.67 36.66 -21.34 37.32 -21 38 C-11.80220019 26.06863756 -11.80220019 26.06863756 -7 12 C-8.17734565 11.89141716 -8.17734565 11.89141716 -9.3828125 13.1875 Z M196.1796875 41.625 C195.07303114 42.74498957 193.9716808 43.87024066 192.875 45 C192.03001953 45.85851562 192.03001953 45.85851562 191.16796875 46.734375 C189.77413732 48.15183069 188.38648364 49.57535626 187 51 C189.97 54.465 189.97 54.465 193 58 C197.65765319 56.8355867 198.5320977 56.0021513 201 52 C201.48079519 48.65005199 201.48079519 48.65005199 201.25 45.1875 C201.21390625 44.02605469 201.1778125 42.86460937 201.140625 41.66796875 C201.09421875 40.78753906 201.0478125 39.90710938 201 39 C198.60185063 38.77289795 198.60185063 38.77289795 196.1796875 41.625 Z M-60 47 C-63.49577155 51.19492586 -64.78925475 54.52062344 -65 60 C-63.13502523 62.28143813 -63.13502523 62.28143813 -60.1875 62.3125 C-56.40518621 61.94168492 -54.71304545 61.71304545 -52 59 C-51.76276105 56.53636478 -51.88538895 54.18909241 -52.0234375 51.71875 C-51.98699774 47.49173823 -50.57438599 43.87973691 -49 40 C-53.23970494 40 -56.94669778 44.31613648 -60 47 Z M110 47 C106.50422845 51.19492586 105.21074525 54.52062344 105 60 C106.86497477 62.28143813 106.86497477 62.28143813 109.8125 62.3125 C113.59481379 61.94168492 115.28695455 61.71304545 118 59 C118.23723895 56.53636478 118.11461105 54.18909241 117.9765625 51.71875 C118.01300226 47.49173823 119.42561401 43.87973691 121 40 C116.76029506 40 113.05330222 44.31613648 110 47 Z M42 55 C43 57 43 57 43 57 Z " fill="#474747" transform="translate(826,791)"/>
<path d="M0 0 C9.31073134 -0.06985741 18.62137088 -0.12299123 27.9323082 -0.15543652 C32.25688764 -0.17101747 36.58128629 -0.19211533 40.90576172 -0.22631836 C45.08792113 -0.25918454 49.26990788 -0.27690976 53.45218658 -0.28463173 C55.03879764 -0.29012677 56.62540046 -0.30085557 58.21193695 -0.31719017 C71.53090433 -0.44872464 84.14363089 0.40779343 95 9 C102.43723943 16.73598689 105 25.41603446 105 36 C104.14349982 45.30105667 100.89034048 52.89252037 94.07421875 59.32421875 C84.57342657 67 84.57342657 67 80 67 C97.284596 100.8579671 97.284596 100.8579671 125 124 C125.125 129.75 125.125 129.75 124 132 C94.87043244 131.0613806 94.87043244 131.0613806 85 122 C77.22136435 113.20321832 71.51047734 102.83951999 65.68017578 92.70605469 C64.77468124 91.13238105 63.86690186 89.56001979 62.95678711 87.98901367 C62.08507898 86.48258057 61.21973925 84.97243992 60.36157227 83.45825195 C59.96639404 82.774646 59.57121582 82.09104004 59.1640625 81.38671875 C58.81811035 80.78045654 58.4721582 80.17419434 58.11572266 79.54956055 C56.19976272 76.88859825 54.21483397 76.0465905 51.08203125 75.3671875 C50.00308594 75.20476562 48.92414062 75.04234375 47.8125 74.875 C46.72582031 74.70742188 45.63914062 74.53984375 44.51953125 74.3671875 C43.27236328 74.18542969 43.27236328 74.18542969 42 74 C42.09372232 79.46294432 42.19985824 84.92545526 42.31738281 90.38793945 C42.35560866 92.24529456 42.39047263 94.10272208 42.421875 95.96020508 C42.46766461 98.63388912 42.52563579 101.30707742 42.5859375 103.98046875 C42.59748871 104.80773972 42.60903992 105.63501068 42.62094116 106.48735046 C42.72824532 110.70198921 42.8976222 114.22861743 45 118 C49.38556655 120.81929278 53.97361317 121.87339606 59 123 C59 125.64 59 128.28 59 131 C39.53 131 20.06 131 0 131 C0 128.36 0 125.72 0 123 C0.83144531 122.81824219 1.66289063 122.63648438 2.51953125 122.44921875 C3.60621094 122.19785156 4.69289063 121.94648437 5.8125 121.6875 C6.89144531 121.44386719 7.97039063 121.20023438 9.08203125 120.94921875 C11.98753057 120.00405632 13.20528707 119.41481308 15 117 C15.90136516 114.29590452 16.12886698 112.72848589 16.14044189 109.9524231 C16.14615204 109.13093781 16.15186218 108.30945251 16.15774536 107.46307373 C16.15886322 106.56534241 16.15998108 105.66761108 16.16113281 104.74267578 C16.16609772 103.79441925 16.17106262 102.84616272 16.17617798 101.86917114 C16.19079971 98.72787759 16.19760133 95.58663452 16.203125 92.4453125 C16.20887606 90.26439411 16.2146338 88.08347573 16.22039795 85.90255737 C16.2309077 81.32777673 16.23675067 76.75301367 16.24023438 72.17822266 C16.24572168 66.31473367 16.269755 60.45147659 16.29820633 54.58806038 C16.31682388 50.08250244 16.32203782 45.57700048 16.32357025 41.07140732 C16.32659886 38.90964361 16.33463436 36.74788094 16.34775543 34.58615494 C16.36479861 31.56262776 16.36293988 28.53966892 16.35644531 25.51611328 C16.3656601 24.62243042 16.37487488 23.72874756 16.3843689 22.8079834 C16.35240064 18.06009004 16.12785803 14.83505833 13 11 C9.01100589 8.83454605 4.39504489 8.04289201 0 7 C0 4.69 0 2.38 0 0 Z M44 10 C41.78282985 13.32575522 41.75456562 14.3360624 41.77294922 18.20581055 C41.77310028 19.26668381 41.77325134 20.32755707 41.77340698 21.420578 C41.78372955 22.56440445 41.79405212 23.7082309 41.8046875 24.88671875 C41.8075174 26.05886429 41.81034729 27.23100983 41.81326294 28.43867493 C41.82447247 32.18838643 41.84957872 35.93786049 41.875 39.6875 C41.88502879 42.2272101 41.89415481 44.76692393 41.90234375 47.30664062 C41.92441433 53.53784165 41.95789961 59.76890386 42 66 C43.60586744 66.00803892 45.21174648 66.01378433 46.81762695 66.01855469 C47.71189896 66.0219989 48.60617096 66.02544312 49.52754211 66.0289917 C57.53431408 65.9351054 64.65054116 63.93913253 70.65625 58.5 C77.51559145 51.23716787 78.57675583 43.2588877 78.35546875 33.51171875 C77.64292445 26.47240747 75.39990958 18.83149805 70 14 C61.32974808 8.60037692 53.8366565 6.60804948 44 10 Z " fill="#2871A7" transform="translate(604,620)"/>
<path d="M0 0 C1.19923096 -0.00056396 2.39846191 -0.00112793 3.6340332 -0.00170898 C36.95962585 0.39712585 36.95962585 0.39712585 41.9375 5.375 C42.24004635 7.96269244 42.48501395 10.53305937 42.69140625 13.12890625 C42.75657944 13.90435287 42.82175262 14.6797995 42.88890076 15.47874451 C43.09684659 17.96466445 43.2984867 20.45105115 43.5 22.9375 C43.63956011 24.61917502 43.77952869 26.3008162 43.91992188 27.98242188 C44.26386218 32.11290289 44.6021467 36.2438133 44.9375 40.375 C40.4825 40.87 40.4825 40.87 35.9375 41.375 C35.71835938 40.69695313 35.49921875 40.01890625 35.2734375 39.3203125 C31.52975398 28.33275355 27.58673428 19.84450468 16.9375 14.375 C6.03775538 9.24808309 -7.62468585 8.53545108 -19.0625 12.375 C-30.35718724 16.64188185 -37.66475719 24.07726283 -42.80566406 34.96337891 C-51.00135261 53.50919149 -50.52970425 76.55500474 -43.9609375 95.5625 C-39.17859802 107.90402124 -32.57057642 117.51283367 -20.375 123.25 C-11.38400459 127.17949438 0.18484113 128.18007363 9.7578125 125.62109375 C13.47861962 123.87052951 15.54890264 122.206447 16.9375 118.375 C17.3130199 114.09741105 17.26682449 109.82339781 17.25317383 105.53051758 C17.25001523 103.44754637 17.27348519 101.3659988 17.29882812 99.28320312 C17.29979492 97.30416992 17.29979492 97.30416992 17.30078125 95.28515625 C17.30376221 94.07996338 17.30674316 92.87477051 17.30981445 91.63305664 C16.90409674 88.08269412 16.08152471 86.20535832 13.9375 83.375 C11.6835707 82.17653524 11.6835707 82.17653524 9.125 81.625 C8.24457031 81.39683594 7.36414062 81.16867187 6.45703125 80.93359375 C3.62811339 80.30640731 0.8110662 79.75310082 -2.0625 79.375 C-2.0625 76.735 -2.0625 74.095 -2.0625 71.375 C17.0775 71.375 36.2175 71.375 55.9375 71.375 C55.9375 74.015 55.9375 76.655 55.9375 79.375 C55.23882813 79.54515625 54.54015625 79.7153125 53.8203125 79.890625 C52.45519531 80.25414062 52.45519531 80.25414062 51.0625 80.625 C50.15757812 80.85703125 49.25265625 81.0890625 48.3203125 81.328125 C45.38481267 82.61782001 45.08138035 83.44624994 43.9375 86.375 C43.65155619 88.55350881 43.65155619 88.55350881 43.71044922 90.86816406 C43.71060028 91.74877502 43.71075134 92.62938599 43.71090698 93.53668213 C43.72122955 94.47848328 43.73155212 95.42028442 43.7421875 96.390625 C43.74643234 97.84707428 43.74643234 97.84707428 43.75076294 99.33294678 C43.76194708 102.43042385 43.78704858 105.5276105 43.8125 108.625 C43.82253208 110.72655832 43.83165753 112.82812118 43.83984375 114.9296875 C43.86188066 120.07823669 43.89639855 125.22656913 43.9375 130.375 C39.9384789 131.19236749 35.93812238 132.00300952 31.9375 132.8125 C30.24947266 133.15764648 30.24947266 133.15764648 28.52734375 133.50976562 C1.47271102 138.96815644 -27.02904116 139.51487271 -51.0625 124.375 C-66.09565598 113.30948068 -74.56710059 98.26075062 -77.625 80.01953125 C-79.95526553 60.60758718 -76.31804225 41.58757053 -64.2109375 25.90234375 C-48.22052082 7.09179904 -23.98369678 -0.02880009 0 0 Z " fill="#2871A7" transform="translate(1168.0625,616.625)"/>
<path d="M0 0 C0.99 16.335 0.99 16.335 2 33 C-2.455 33.495 -2.455 33.495 -7 34 C-7.29132813 33.154375 -7.58265625 32.30875 -7.8828125 31.4375 C-11.25710978 21.13216074 -11.25710978 21.13216074 -18 13 C-25.23165917 10.31730417 -32.97395311 10.76666751 -40.5625 10.875 C-46.7190625 10.936875 -46.7190625 10.936875 -53 11 C-53.33 26.84 -53.66 42.68 -54 59 C-47.750625 58.8453125 -47.750625 58.8453125 -41.375 58.6875 C-40.07224121 58.66260498 -38.76948242 58.63770996 -37.42724609 58.61206055 C-29.23744565 58.48388222 -29.23744565 58.48388222 -22 55 C-20.74466972 53.19092691 -20.74466972 53.19092691 -20.25 51.125 C-19.92322266 50.07699219 -19.92322266 50.07699219 -19.58984375 49.0078125 C-19.39519531 48.34523438 -19.20054688 47.68265625 -19 47 C-18.33933281 45.33094605 -17.67561748 43.6630584 -17 42 C-14.36 42 -11.72 42 -9 42 C-9 56.52 -9 71.04 -9 86 C-11.64 86 -14.28 86 -17 86 C-17.18175781 85.40832031 -17.36351562 84.81664062 -17.55078125 84.20703125 C-19.4799862 77.69217877 -19.4799862 77.69217877 -23 72 C-29.33172368 69.56337806 -35.7165928 69.56645611 -42.4375 69.375 C-43.55060547 69.33632813 -44.66371094 69.29765625 -45.81054688 69.2578125 C-48.54020476 69.16409034 -51.26986563 69.07837706 -54 69 C-53.93093029 74.99609067 -53.84286915 80.99149684 -53.73754883 86.98706055 C-53.70438816 89.02474345 -53.67632888 91.06251624 -53.65356445 93.1003418 C-53.61985538 96.03733463 -53.56753126 98.97351023 -53.51171875 101.91015625 C-53.50532883 102.81459976 -53.4989389 103.71904327 -53.49235535 104.65089417 C-53.36626743 110.13137245 -52.83016797 114.24036608 -50 119 C-44.62368746 122.30845623 -37.78714881 121.3287484 -31.6875 121.3125 C-30.48931641 121.32861328 -29.29113281 121.34472656 -28.05664062 121.36132812 C-16.89253661 121.40968129 -16.89253661 121.40968129 -7.6796875 115.6875 C-7.08414062 114.800625 -6.48859375 113.91375 -5.875 113 C-5.22273438 112.03449219 -4.57046875 111.06898438 -3.8984375 110.07421875 C-1.06416681 105.48456641 1.54711276 100.80357085 4 96 C6.97 96.33 9.94 96.66 13 97 C12.06995093 101.1475405 11.12960514 105.29268283 10.1875 109.4375 C9.92646484 110.60216797 9.66542969 111.76683594 9.39648438 112.96679688 C9.00493164 114.68286133 9.00493164 114.68286133 8.60546875 116.43359375 C8.25198364 117.99678345 8.25198364 117.99678345 7.89135742 119.59155273 C6.79463503 123.7852918 5.37077523 127.88767431 4 132 C-29.66 132 -63.32 132 -98 132 C-98 129.36 -98 126.72 -98 124 C-97.10796875 123.81824219 -96.2159375 123.63648438 -95.296875 123.44921875 C-94.12640625 123.19785156 -92.9559375 122.94648437 -91.75 122.6875 C-90.58984375 122.44386719 -89.4296875 122.20023438 -88.234375 121.94921875 C-85.10563552 121.03100173 -83.32828608 120.245133 -81 118 C-80.09743578 115.29230735 -79.87281563 113.731639 -79.86628723 110.9524231 C-79.86202225 110.13093781 -79.85775726 109.30945251 -79.85336304 108.46307373 C-79.85404282 107.11647675 -79.85404282 107.11647675 -79.85473633 105.74267578 C-79.85137772 104.79441925 -79.8480191 103.84616272 -79.84455872 102.86917114 C-79.83504347 99.72787168 -79.83310529 96.58662549 -79.83203125 93.4453125 C-79.828819 91.2643939 -79.82545496 89.08347552 -79.82194519 86.90255737 C-79.81595244 82.32777405 -79.81410543 77.75300963 -79.81469727 73.17822266 C-79.81479888 67.31478529 -79.80114785 61.45146904 -79.78392506 55.58806038 C-79.77280894 51.08250369 -79.77077794 46.57697632 -79.77130699 42.07140732 C-79.77012625 39.90965228 -79.76569918 37.7478965 -79.75797462 35.58615494 C-79.74818296 32.56272134 -79.75104965 29.53955107 -79.75708008 26.51611328 C-79.75146057 25.62243042 -79.74584106 24.72874756 -79.74005127 23.8079834 C-79.76201252 19.47737198 -79.81265125 15.87406654 -82 12 C-85.94228865 9.79695634 -90.62735069 9.0375778 -95 8 C-95 5.69 -95 3.38 -95 1 C-86.00962028 0.8676391 -77.01921579 0.73714307 -68.02877712 0.60884857 C-63.85144693 0.54918285 -59.67412693 0.48894078 -55.49682617 0.42724609 C-36.99605708 0.1544221 -18.503445 -0.06312476 0 0 Z " fill="#2871A7" transform="translate(1342,619)"/>
<path d="M0 0 C0.99 16.335 0.99 16.335 2 33 C-2.455 33.495 -2.455 33.495 -7 34 C-7.29132813 33.154375 -7.58265625 32.30875 -7.8828125 31.4375 C-11.25710978 21.13216074 -11.25710978 21.13216074 -18 13 C-25.23165917 10.31730417 -32.97395311 10.76666751 -40.5625 10.875 C-46.7190625 10.936875 -46.7190625 10.936875 -53 11 C-53.33 26.84 -53.66 42.68 -54 59 C-47.750625 58.8453125 -47.750625 58.8453125 -41.375 58.6875 C-40.07224121 58.66260498 -38.76948242 58.63770996 -37.42724609 58.61206055 C-29.23744565 58.48388222 -29.23744565 58.48388222 -22 55 C-20.74466972 53.19092691 -20.74466972 53.19092691 -20.25 51.125 C-19.92322266 50.07699219 -19.92322266 50.07699219 -19.58984375 49.0078125 C-19.39519531 48.34523438 -19.20054687 47.68265625 -19 47 C-18.33933281 45.33094605 -17.67561748 43.6630584 -17 42 C-14.36 42 -11.72 42 -9 42 C-9 56.52 -9 71.04 -9 86 C-11.64 86 -14.28 86 -17 86 C-17.18175781 85.40832031 -17.36351562 84.81664062 -17.55078125 84.20703125 C-19.4799862 77.69217877 -19.4799862 77.69217877 -23 72 C-29.33172368 69.56337806 -35.7165928 69.56645611 -42.4375 69.375 C-43.55060547 69.33632813 -44.66371094 69.29765625 -45.81054688 69.2578125 C-48.54020476 69.16409034 -51.26986563 69.07837706 -54 69 C-53.93093029 74.99609067 -53.84286915 80.99149684 -53.73754883 86.98706055 C-53.70438816 89.02474345 -53.67632888 91.06251624 -53.65356445 93.1003418 C-53.61985538 96.03733463 -53.56753126 98.97351023 -53.51171875 101.91015625 C-53.50532883 102.81459976 -53.4989389 103.71904327 -53.49235535 104.65089417 C-53.36626743 110.13137245 -52.83016797 114.24036608 -50 119 C-44.62368746 122.30845623 -37.78714881 121.3287484 -31.6875 121.3125 C-30.48931641 121.32861328 -29.29113281 121.34472656 -28.05664062 121.36132812 C-16.89253661 121.40968129 -16.89253661 121.40968129 -7.6796875 115.6875 C-7.08414063 114.800625 -6.48859375 113.91375 -5.875 113 C-5.22273437 112.03449219 -4.57046875 111.06898438 -3.8984375 110.07421875 C-1.06416681 105.48456641 1.54711276 100.80357085 4 96 C6.97 96.33 9.94 96.66 13 97 C12.06995093 101.1475405 11.12960514 105.29268283 10.1875 109.4375 C9.92646484 110.60216797 9.66542969 111.76683594 9.39648438 112.96679688 C9.00493164 114.68286133 9.00493164 114.68286133 8.60546875 116.43359375 C8.25198364 117.99678345 8.25198364 117.99678345 7.89135742 119.59155273 C6.79463503 123.7852918 5.37077523 127.88767431 4 132 C-29.66 132 -63.32 132 -98 132 C-98 129.36 -98 126.72 -98 124 C-97.10796875 123.81824219 -96.2159375 123.63648438 -95.296875 123.44921875 C-94.12640625 123.19785156 -92.9559375 122.94648437 -91.75 122.6875 C-90.58984375 122.44386719 -89.4296875 122.20023438 -88.234375 121.94921875 C-85.10563552 121.03100173 -83.32828608 120.245133 -81 118 C-80.09743578 115.29230735 -79.87281563 113.731639 -79.86628723 110.9524231 C-79.86202225 110.13093781 -79.85775726 109.30945251 -79.85336304 108.46307373 C-79.85404282 107.11647675 -79.85404282 107.11647675 -79.85473633 105.74267578 C-79.85137772 104.79441925 -79.8480191 103.84616272 -79.84455872 102.86917114 C-79.83504347 99.72787168 -79.83310529 96.58662549 -79.83203125 93.4453125 C-79.828819 91.2643939 -79.82545496 89.08347552 -79.82194519 86.90255737 C-79.81595244 82.32777405 -79.81410543 77.75300963 -79.81469727 73.17822266 C-79.81479888 67.31478529 -79.80114785 61.45146904 -79.78392506 55.58806038 C-79.77280894 51.08250369 -79.77077794 46.57697632 -79.77130699 42.07140732 C-79.77012625 39.90965228 -79.76569918 37.7478965 -79.75797462 35.58615494 C-79.74818296 32.56272134 -79.75104965 29.53955107 -79.75708008 26.51611328 C-79.75146057 25.62243042 -79.74584106 24.72874756 -79.74005127 23.8079834 C-79.76201252 19.47737198 -79.81265125 15.87406654 -82 12 C-85.94228865 9.79695634 -90.62735069 9.0375778 -95 8 C-95 5.69 -95 3.38 -95 1 C-86.00962028 0.8676391 -77.01921579 0.73714307 -68.02877712 0.60884857 C-63.85144693 0.54918285 -59.67412693 0.48894078 -55.49682617 0.42724609 C-36.99605708 0.1544221 -18.503445 -0.06312476 0 0 Z " fill="#2871A7" transform="translate(571,619)"/>
<path d="M0 0 C3.35702207 7.91818205 6.52312316 15.88424236 9.51953125 23.9453125 C10.14349289 25.61511421 10.14349289 25.61511421 10.78005981 27.31864929 C11.66738611 29.69344063 12.5538203 32.06856546 13.43942261 34.44400024 C14.83041072 38.17301576 16.22502225 41.90066272 17.62133789 45.62768555 C17.85523318 46.2520283 18.08912848 46.87637106 18.3301115 47.51963329 C18.80348443 48.78315645 19.27687533 50.04667288 19.75028419 51.31018257 C20.92990187 54.45877305 22.10901825 57.60755119 23.28808594 60.75634766 C23.9710675 62.58024017 23.9710675 62.58024017 24.66784668 64.440979 C25.92829683 67.80843564 27.18740792 71.17639016 28.44628906 74.54443359 C30.26724222 79.41381554 32.09652542 84.27998718 33.9324646 89.14373779 C34.59397801 90.9003147 35.2526062 92.65798131 35.90811157 94.41680908 C40.96053061 110.41830614 40.96053061 110.41830614 50.875 123.0625 C54.56851714 124.17055514 58.23621443 125.15639289 62 126 C62 128.64 62 131.28 62 134 C43.52 134 25.04 134 6 134 C6 131.36 6 128.72 6 126 C9.3 124.68 12.6 123.36 16 122 C15.50390768 114.44837243 13.52392715 108.02046466 10.9375 100.9375 C8.9884375 95.5234375 8.9884375 95.5234375 7 90 C-12.8 89.505 -12.8 89.505 -33 89 C-33.66 91.97 -34.32 94.94 -35 98 C-35.47683353 99.55883935 -35.98237655 101.10991055 -36.54296875 102.640625 C-36.81173828 103.40117188 -37.08050781 104.16171875 -37.35742188 104.9453125 C-37.91713773 106.49934711 -38.48236905 108.05140483 -39.05273438 109.6015625 C-41.11072604 115.23930389 -41.11072604 115.23930389 -40 121 C-34.97597993 123.82601129 -29.62670561 124.91548758 -24 126 C-24 128.64 -24 131.28 -24 134 C-40.5 134 -57 134 -74 134 C-74 131.36 -74 128.72 -74 126 C-72.78763672 125.65388672 -72.78763672 125.65388672 -71.55078125 125.30078125 C-70.48214844 124.97464844 -69.41351562 124.64851562 -68.3125 124.3125 C-67.25675781 123.99925781 -66.20101562 123.68601562 -65.11328125 123.36328125 C-59.16552357 120.75880518 -56.3735209 116.41044504 -53.76611328 110.6418457 C-53.4758684 109.99987149 -53.18562351 109.35789728 -52.88658333 108.69646931 C-48.97613747 99.90214407 -45.50920017 90.91705092 -42.004879 81.95558739 C-40.71547044 78.66222906 -39.41785429 75.37221657 -38.1177063 72.08308411 C-34.42642656 62.74426298 -30.7399812 53.40363995 -27.08251953 44.05151367 C-24.83358907 38.30274776 -22.5672115 32.56113716 -20.28909683 26.82387733 C-19.42691226 24.64273121 -18.5713446 22.45895748 -17.72253036 20.27257347 C-16.54100013 17.2311232 -15.33748987 14.19928723 -14.12841797 11.16870117 C-13.6108342 9.81222473 -13.6108342 9.81222473 -13.08279419 8.42834473 C-10.64603338 2.41555018 -10.64603338 2.41555018 -7.55447388 0.42695618 C-4.97488385 -0.00419793 -2.6100834 -0.14914762 0 0 Z M-13 36 C-15.12093004 41.47979845 -17.23876938 46.96077742 -19.35375977 52.44287109 C-20.07361492 54.3074565 -20.79431196 56.17171711 -21.51586914 58.03564453 C-22.55316388 60.71562006 -23.5874205 63.39675092 -24.62109375 66.078125 C-24.94403915 66.91055725 -25.26698456 67.7429895 -25.59971619 68.60064697 C-25.89995193 69.38115417 -26.20018768 70.16166138 -26.50952148 70.96582031 C-26.77377426 71.64976868 -27.03802704 72.33371704 -27.31028748 73.03839111 C-27.99540636 74.98693524 -28.49904725 76.99618902 -29 79 C-18.44 79 -7.88 79 3 79 C0.43632862 69.5993287 0.43632862 69.5993287 -2.62890625 60.43359375 C-2.98165871 59.46523338 -2.98165871 59.46523338 -3.34153748 58.47731018 C-3.83082101 57.13826172 -4.3223596 55.80003507 -4.81616211 54.46264648 C-5.57188424 52.41203639 -6.3165258 50.35761495 -7.06054688 48.30273438 C-7.54101308 46.99194774 -8.02210912 45.68139177 -8.50390625 44.37109375 C-8.93517822 43.19474365 -9.3664502 42.01839355 -9.81079102 40.80639648 C-10.82471971 37.92516259 -10.82471971 37.92516259 -13 36 Z " fill="#2871A7" transform="translate(1015,617)"/>
<path d="M0 0 C6.8046875 -0.1796875 6.8046875 -0.1796875 8.5625 1.4375 C9.036875 1.953125 9.51125 2.46875 10 3 C14.68430475 4.06708058 19.31704081 4.1482144 24.09741211 4.14526367 C24.88683701 4.14862228 25.6762619 4.1519809 26.48960876 4.15544128 C29.08553666 4.16489936 31.68139972 4.16689166 34.27734375 4.16796875 C36.09045945 4.17118441 37.9035749 4.17454872 39.71669006 4.17805481 C43.5118978 4.18403285 47.30708281 4.18589602 51.10229492 4.18530273 C55.95543563 4.18520107 60.80843016 4.19886322 65.66153622 4.21607494 C69.40455286 4.22721413 73.14753435 4.22922137 76.89056587 4.22869301 C78.67945421 4.22986984 80.46834356 4.23427493 82.2572155 4.24202538 C84.76264466 4.25186605 87.2677587 4.24893145 89.77319336 4.24291992 C90.50536072 4.24853943 91.23752808 4.25415894 91.99188232 4.25994873 C97.43463163 4.22690612 103.0004414 3.9995586 107 0 C110.625 -0.125 110.625 -0.125 114 0 C114.28778292 4.28651122 114.57250377 8.57321203 114.85449219 12.86010742 C114.95067301 14.31589129 115.04766399 15.77162188 115.14550781 17.22729492 C115.2866817 19.32977749 115.42485959 21.43243975 115.5625 23.53515625 C115.64628906 24.797229 115.73007812 26.05930176 115.81640625 27.35961914 C115.99593165 30.91933085 116.10340118 34.43687417 116 38 C115 39 115 39 111.4375 39.0625 C110.303125 39.041875 109.16875 39.02125 108 39 C107.52949219 37.90300781 107.05898438 36.80601562 106.57421875 35.67578125 C105.94549652 34.22127461 105.31658 32.76685194 104.6875 31.3125 C104.2244043 30.2306543 104.2244043 30.2306543 103.75195312 29.12695312 C103.13820334 27.71209836 102.51058984 26.30316955 101.86865234 24.90087891 C101.15480297 23.33875657 100.48685023 21.75574053 99.83203125 20.16796875 C96.53285188 16.26382259 91.33777107 15.29806468 86.38948059 14.66716003 C83.73719087 14.48767879 81.09489707 14.38073837 78.4375 14.3125 C77.06754883 14.26125977 77.06754883 14.26125977 75.66992188 14.20898438 C73.44673771 14.12750642 71.22389803 14.05804262 69 14 C69.06124064 27.30877326 69.13836862 40.61735089 69.23571491 53.9259119 C69.28042015 60.1057867 69.31967619 66.28559554 69.34643555 72.46557617 C69.37246661 78.43089195 69.41286825 84.39595397 69.46318626 90.36111259 C69.47985619 92.63561278 69.49136967 94.91015685 69.49761391 97.18470955 C69.50725332 100.37349096 69.5353119 103.56162294 69.56762695 106.75024414 C69.56619186 107.68820328 69.56475677 108.62616241 69.5632782 109.59254456 C69.64248313 115.12811009 70.29396382 119.12618179 73 124 C75.61199184 125.48474579 75.61199184 125.48474579 79 126 C79.86238281 126.18175781 80.72476563 126.36351562 81.61328125 126.55078125 C84.07112537 127.06181815 86.53190099 127.54149939 89 128 C89 130.64 89 133.28 89 136 C67.88 136 46.76 136 25 136 C25 133.36 25 130.72 25 128 C25.89203125 127.82984375 26.7840625 127.6596875 27.703125 127.484375 C28.87359375 127.24203125 30.0440625 126.9996875 31.25 126.75 C32.41015625 126.51796875 33.5703125 126.2859375 34.765625 126.046875 C38.28645769 124.90728181 39.76649465 123.91419269 42 121 C42.90367981 118.16486871 43.13290548 115.57392977 43.15821838 112.60870361 C43.1680072 111.73654709 43.17779602 110.86439056 43.18788147 109.96580505 C43.19363693 109.01706009 43.1993924 108.06831512 43.20532227 107.09082031 C43.21522186 106.08561844 43.22512146 105.08041656 43.23532104 104.04475403 C43.26690572 100.7225683 43.29168159 97.40036828 43.31640625 94.078125 C43.33697839 91.7745527 43.35797493 89.47098415 43.37937927 87.16741943 C43.43457308 81.10446207 43.48399429 75.0414708 43.53222656 68.97845459 C43.58246118 62.79159527 43.63813703 56.6047852 43.69335938 50.41796875 C43.80090806 38.27868791 43.9023604 26.1393643 44 14 C41.11053154 14.14989952 38.22126068 14.30264707 35.33203125 14.45703125 C34.11102722 14.51993347 34.11102722 14.51993347 32.86535645 14.58410645 C22.85815194 14.83172462 22.85815194 14.83172462 14.25 19.375 C11.4716463 23.25892697 9.8405759 27.77298808 8.11328125 32.1953125 C7.18145261 34.54286675 6.1709276 36.76507883 5 39 C2.36 39 -0.28 39 -3 39 C-2.34307836 25.9652916 -1.24525893 12.99093272 0 0 Z " fill="#2871A7" transform="translate(828,615)"/>
<path d="M0 0 C19.8 0 39.6 0 60 0 C60 2.31 60 4.62 60 7 C59.18015625 7.17015625 58.3603125 7.3403125 57.515625 7.515625 C55.89914062 7.87914062 55.89914062 7.87914062 54.25 8.25 C53.18265625 8.48203125 52.1153125 8.7140625 51.015625 8.953125 C47.5791444 10.14610013 46.1191192 11.049077 44 14 C42.98015901 19.29804532 42.85167328 24.46781305 42.85473633 29.83764648 C42.85137772 30.69388611 42.8480191 31.55012573 42.84455872 32.43231201 C42.83510805 35.24525426 42.83310873 38.05813664 42.83203125 40.87109375 C42.82881514 42.83732629 42.82545081 44.8035586 42.82194519 46.76979065 C42.81596905 50.88437454 42.81410379 54.99893747 42.81469727 59.11352539 C42.81479893 64.3734582 42.80113538 69.63325616 42.78392506 74.89315701 C42.77278279 78.95189527 42.77077873 83.01060112 42.77130699 87.0693531 C42.77013068 89.00813322 42.76572853 90.94691428 42.75797462 92.88567924 C42.74812746 95.60153425 42.75107111 98.31709885 42.75708008 101.03295898 C42.75146057 101.82541519 42.74584106 102.6178714 42.74005127 103.43434143 C42.76893464 108.59707896 43.41280829 113.06954634 45 118 C49.39385785 121.21501794 54.7258539 122.0037724 60 123 C60 125.64 60 128.28 60 131 C40.2 131 20.4 131 0 131 C0 128.36 0 125.72 0 123 C0.83144531 122.81824219 1.66289063 122.63648438 2.51953125 122.44921875 C3.60621094 122.19785156 4.69289063 121.94648437 5.8125 121.6875 C6.89144531 121.44386719 7.97039063 121.20023438 9.08203125 120.94921875 C11.98753057 120.00405632 13.20528707 119.41481308 15 117 C15.90136516 114.29590452 16.12886698 112.72848589 16.14044189 109.9524231 C16.14615204 109.13093781 16.15186218 108.30945251 16.15774536 107.46307373 C16.15886322 106.56534241 16.15998108 105.66761108 16.16113281 104.74267578 C16.16609772 103.79441925 16.17106262 102.84616272 16.17617798 101.86917114 C16.19079971 98.72787759 16.19760133 95.58663452 16.203125 92.4453125 C16.20887606 90.26439411 16.2146338 88.08347573 16.22039795 85.90255737 C16.2309077 81.32777673 16.23675067 76.75301367 16.24023438 72.17822266 C16.24572168 66.31473367 16.269755 60.45147659 16.29820633 54.58806038 C16.31682388 50.08250244 16.32203782 45.57700048 16.32357025 41.07140732 C16.32659886 38.90964361 16.33463436 36.74788094 16.34775543 34.58615494 C16.36479861 31.56262776 16.36293988 28.53966892 16.35644531 25.51611328 C16.3656601 24.62243042 16.37487488 23.72874756 16.3843689 22.8079834 C16.35232014 18.04813428 16.10737185 14.86089199 13 11 C10.24726767 9.19138661 7.45553912 8.53496394 4.25 7.875 C3.45078125 7.70742188 2.6515625 7.53984375 1.828125 7.3671875 C1.22484375 7.24601563 0.6215625 7.12484375 0 7 C0 4.69 0 2.38 0 0 Z " fill="#2871A7" transform="translate(743,620)"/>
<path d="M0 0 C0.31700432 5.28340536 -0.10389686 8.53492857 -3 13 C-6.1796875 14.79296875 -6.1796875 14.79296875 -9.875 16.1875 C-14.19776383 17.85327842 -18.04640347 19.59808383 -22 22 C-22.66 22 -23.32 22 -24 22 C-23.66032174 18.82966958 -23.00130809 18.00117393 -20.5625 15.8125 C-18 14 -18 14 -16 13 C-29.13085453 12.41107463 -41.66306436 13.90270351 -53 21 C-53.66 21.66 -54.32 22.32 -55 23 C-55 23.99 -55 24.98 -55 26 C-53.9958606 26.31638428 -53.9958606 26.31638428 -52.97143555 26.63916016 C-49.87295789 27.62279538 -46.78034017 28.62378629 -43.6875 29.625 C-42.63498047 29.95628906 -41.58246094 30.28757812 -40.49804688 30.62890625 C-31.43807241 33.58385177 -20.9517918 37.14070004 -14.96875 45.01953125 C-13.02156813 49.00026193 -13.13424158 52.72489833 -14 57 C-16.16487515 63.08534558 -20.32311876 66.68386179 -25.921875 69.6796875 C-36.88821183 74.38352233 -47.64980759 75.35905506 -59.5 75.4375 C-60.59763672 75.44765137 -61.69527344 75.45780273 -62.82617188 75.46826172 C-69.83852021 75.39241213 -77.76438787 75.23561213 -83 70 C-83.53066144 66.1084828 -83.15611911 64.2843598 -81.25 60.8125 C-77.7184466 56.39805825 -77.7184466 56.39805825 -75 55 C-71.25 54.8125 -71.25 54.8125 -68 55 C-68 55.66 -68 56.32 -68 57 C-68.99 57.495 -68.99 57.495 -70 58 C-54.33579168 59.92835898 -37.64288467 59.79208123 -24 51 C-27.47748069 45.03860453 -32.71602865 43.81013695 -39 42 C-41.70225935 41.3281978 -44.41393899 40.69769723 -47.125 40.0625 C-54.22900009 38.39533679 -60.74713483 36.25286517 -66 31 C-67.1225469 23.48154632 -65.84361972 16.53645508 -62 10 C-55.62670056 1.69650131 -42.96872648 -1.56172603 -33 -3 C-21.99838626 -4.38430901 -9.94087085 -5.57768319 0 0 Z " fill="#474747" transform="translate(759,794)"/>
<path d="M0 0 C1.09798362 10.10144931 -5.90388381 18.68055254 -11 26.9375 C-19.75228434 41.01112992 -19.75228434 41.01112992 -23 57 C-22.67 57.66 -22.34 58.32 -22 59 C-17.5496963 58.50377145 -15.50566113 57.01139195 -12.3125 53.9375 C-8.19507909 50 -8.19507909 50 -6 50 C-5.5069517 54.07830077 -5.75631898 55.65364687 -8.16015625 59.0703125 C-9.11222759 60.10293357 -10.08031003 61.12098358 -11.0625 62.125 C-11.52849609 62.63675781 -11.99449219 63.14851562 -12.47460938 63.67578125 C-15.94746974 67.35181576 -19.45009876 69.77832691 -24 72 C-27.3125 71.9375 -27.3125 71.9375 -30 71 C-32.49118953 67.2632157 -32.2065226 65.25548181 -32.125 60.8125 C-32.10695313 59.54019531 -32.08890625 58.26789062 -32.0703125 56.95703125 C-32.04710937 55.98121094 -32.02390625 55.00539063 -32 54 C-32.58007812 54.66386719 -33.16015625 55.32773437 -33.7578125 56.01171875 C-44.78071334 68.47159841 -44.78071334 68.47159841 -49.625 69.625 C-53.11981771 68.70531113 -54.09895369 67.01545277 -56 64 C-57.25 60.6875 -57.25 60.6875 -58 58 C-59.4540625 59.2684375 -59.4540625 59.2684375 -60.9375 60.5625 C-61.57816406 61.10390625 -62.21882813 61.6453125 -62.87890625 62.203125 C-64.31971004 63.42369543 -65.74382893 64.66418118 -67.15234375 65.921875 C-71.67796917 69.77144039 -75.09609566 71.7863885 -81.0546875 72.3203125 C-83.6134455 71.8989909 -84.4414159 71.03887285 -86 69 C-87.43721901 63.36167929 -86.61928087 59.42935351 -85 54 C-86.485 54.495 -86.485 54.495 -88 55 C-88.41112963 51.60818054 -88.24319247 50.32789412 -86.171875 47.53515625 C-85.37265625 46.71917969 -84.5734375 45.90320313 -83.75 45.0625 C-80.39102159 41.52367077 -77.52209462 38.16693894 -75 34 C-77.97 34 -80.94 34 -84 34 C-83.60226659 28.56431 -81.76974758 24.85125564 -78 21 C-75.26152903 19.66119197 -73.09988775 19.02645021 -70.05078125 18.953125 C-66.60558918 18.82187959 -64.72152033 18.73423435 -62.2265625 16.1953125 C-61.1831423 14.76506334 -60.18015056 13.30414613 -59.2265625 11.8125 C-58 10 -58 10 -56 9 C-53.6670134 8.95977609 -51.33293334 8.95679753 -49 9 C-49.53115106 13.51478398 -51.36620292 16.34666857 -54 20 C-52.35 20 -50.7 20 -49 20 C-50.35214757 25.40859029 -52.68993813 30.36762082 -57 34 C-60.11388862 34.6603679 -62.87057512 34.50070798 -66 34 C-66.26554687 34.69222656 -66.53109375 35.38445313 -66.8046875 36.09765625 C-68.58161041 40.41221091 -70.69331487 44.5627696 -72.7578125 48.74609375 C-74.03686111 52.09655757 -74.24624833 54.45081212 -74 58 C-68.47730107 58.46434141 -65.62713796 56.29608524 -61.2890625 53.12890625 C-58.36300801 50.40757571 -57.3253337 47.87142405 -55.94921875 44.19140625 C-53.12284235 37.66631505 -46.9456183 34.09659219 -41.0625 30.5625 C-40.48967285 30.20792725 -39.9168457 29.85335449 -39.32666016 29.48803711 C-34.59931746 26.79728331 -31.2773638 26.59828201 -26 27 C-25.01 27.33 -24.02 27.66 -23 28 C-22.53944214 27.10075806 -22.53944214 27.10075806 -22.06958008 26.18334961 C-20.65623495 23.43177235 -19.23444321 20.68464318 -17.8125 17.9375 C-17.32974609 16.99455078 -16.84699219 16.05160156 -16.34960938 15.08007812 C-7.58760819 -1.7970651 -7.58760819 -1.7970651 0 0 Z M-28 37 C-30.77904718 38.40095907 -33.54653253 39.82341371 -36.3125 41.25 C-37.09818359 41.64574219 -37.88386719 42.04148437 -38.69335938 42.44921875 C-44.25181194 45.21520034 -44.25181194 45.21520034 -48 50 C-48.56327743 52.11818257 -48.56327743 52.11818257 -48.6875 54.25 C-48.790625 55.4875 -48.89375 56.725 -49 58 C-45.00140517 57.44719887 -43.01192283 55.46604577 -40.125 52.75 C-37.30323654 50.1280074 -34.50377764 47.53690027 -31.5 45.125 C-28.84546937 43.0658186 -28.84546937 43.0658186 -27 40 C-27.33 39.01 -27.66 38.02 -28 37 Z " fill="#474747" transform="translate(1237,793)"/>
<path d="M0 0 C1 1 1 1 1.375 4.8125 C1.27529419 13.78602311 -3.8561627 22.06151433 -8.08203125 29.74609375 C-9.16543076 31.98996994 -9.16543076 31.98996994 -8.97265625 34.5625 C-9.01422826 38.26834755 -10.85696957 39.73288223 -13.28125 42.3515625 C-17.10233246 46.01632795 -19.64463057 48 -25 48 C-25.41315283 41.60325439 -24.41984519 37.70995929 -21.375 32.125 C-21.01470703 31.43535156 -20.65441406 30.74570312 -20.28320312 30.03515625 C-17.39653834 24.56837514 -14.31281249 19.22018938 -11 14 C-21.51796726 22.14412048 -28.79736775 32.98111836 -36.39990234 43.74023438 C-37.93027561 45.90153053 -39.47210907 48.05401272 -41.01953125 50.203125 C-41.92974423 51.4687092 -42.83990366 52.73433192 -43.75 54 C-44.16822021 54.58104492 -44.58644043 55.16208984 -45.01733398 55.76074219 C-47.17612651 58.77685303 -47.17612651 58.77685303 -49 62 C-48.00798584 61.96390625 -47.01597168 61.9278125 -45.99389648 61.890625 C-41.83641411 62.00447989 -38.10091438 62.72837941 -34.09765625 63.75 C-33.3750914 63.92756836 -32.65252655 64.10513672 -31.9080658 64.28808594 C-29.62425643 64.85115644 -27.34342508 65.42536982 -25.0625 66 C-23.50474127 66.38615959 -21.94679999 66.77158355 -20.38867188 67.15625 C-16.59028472 68.09567629 -12.79452508 69.04509902 -9 70 C-9 73.92424855 -10.26594098 74.77453338 -12.875 77.625 C-13.59429688 78.42164063 -14.31359375 79.21828125 -15.0546875 80.0390625 C-17.86995297 82.87694055 -18.70036693 82.98043213 -22.828125 83.25 C-30.11512446 83.16845085 -37.05116751 80.97061562 -44.0546875 79.1328125 C-55.03200632 76.40794613 -64.48196169 75.64770829 -75 80 C-77.40272299 80.2347488 -79.58027821 80.15123261 -82 80 C-81.66475503 73.29510058 -77.91245281 68.76683017 -73.203125 64.29296875 C-70.29536886 62.58646647 -67.91491961 62.71309364 -64.5625 62.5 C-58.17040605 61.24807694 -55.68660599 59.11307768 -51.9831543 53.81054688 C-49.79608984 50.41324256 -47.67119149 46.98240334 -45.57910156 43.52587891 C-43.17997238 39.6883108 -40.49519832 36.09462124 -37.75 32.5 C-37.25169678 31.84338379 -36.75339355 31.18676758 -36.23999023 30.51025391 C-34.83453225 28.6672675 -33.41988134 26.83188899 -32 25 C-31.22011719 23.99324219 -30.44023438 22.98648438 -29.63671875 21.94921875 C-11.45629998 -0.88125384 -11.45629998 -0.88125384 0 0 Z " fill="#474747" transform="translate(1152,783)"/>
<path d="M0 0 C3.3125 0.375 3.3125 0.375 4.3125 1.375 C4.69628392 5.36635276 4.64963258 7.74119076 2.75 11.3125 C0.3125 13.375 0.3125 13.375 -3.375 13.75 C-6.6875 13.375 -6.6875 13.375 -7.6875 12.375 C-8.07128392 8.38364724 -8.02463258 6.00880924 -6.125 2.4375 C-3.6875 0.375 -3.6875 0.375 0 0 Z " fill="#474747" transform="translate(923.6875,803.625)"/>
</svg>
