<?xml version="1.0" encoding="UTF-8"?>
<svg xmlns="http://www.w3.org/2000/svg" viewBox="0 0 150 160" role="img" aria-label="Heritage shield">
  <defs>
    <linearGradient id="markLight" x1="0" y1="0" x2="1" y2="1">
      <stop offset="0%" stop-color="#BCD3E6"/>
      <stop offset="100%" stop-color="#86A8C7"/>
    </linearGradient>
    <linearGradient id="markDark" x1="0" y1="0" x2="1" y2="1">
      <stop offset="0%" stop-color="#5B6D7C"/>
      <stop offset="100%" stop-color="#2F3F4F"/>
    </linearGradient>
  </defs>
  <path d="M5 5 H145 V95 Q145 130 75 155 Q5 130 5 95 Z"
        fill="#FFFFFF" stroke="#A9B3BD" stroke-width="3"/>
  <path d="M8 8 H75 V153 Q8 130 8 95 Z" fill="url(#markLight)"/>
  <path d="M75 8 H142 V95 Q142 130 75 153 Z" fill="url(#markDark)"/>
  <path d="M40 32 C 40 32, 55 23, 63 29
           C 71 35, 61 54, 65 73
           C 69 90, 87 97, 97 86
           C 107 75, 100 60, 85 62
           C 70 64, 60 81, 64 104
           C 67 124, 82 134, 97 127"
        fill="none" stroke="#FFFFFF" stroke-width="7" stroke-linecap="round" stroke-linejoin="round" opacity="0.95"/>
</svg>
